<svg xmlns="http://www.w3.org/2000/svg" version="1.0" preserveAspectRatio="xMidYMid meet" viewBox="110 209 309.5 89.5">

<g transform="translate(0.000000,500.000000) scale(0.100000,-0.100000)" fill="#000000" stroke="none">
<path d="M1100 2540 l0 -370 736 0 736 0 -5 83 c-2 45 -7 93 -11 107 -3 14 -1 10 6 -8 14 -42 67 -88 115 -101 84 -24 179 -7 225 39 23 24 28 37 28 78 0 71 -31 105 -118 132 -80 25 -112 44 -112 68 0 46 60 57 86 17 14 -22 23 -25 75 -25 66 0 70 6 39 58 -52 84 -214 96 -289 22 -16 -17 -32 -40 -34 -53 -2 -12 -5 56 -6 151 l-1 172 -735 0 -735 0 0 -370z m1413 278 c21 -25 22 -47 1 -76 -13 -19 -24 -22 -57 -20 -35 2 -44 8 -56 32 -34 71 59 125 112 64z m-855 -25 c5 -10 49 -130 98 -268 l89 -250 3 203 2 202 65 0 64 0 3 -37 3 -38 17 31 c22 40 65 58 117 49 l41 -7 0 57 0 56 63 -3 62 -3 3 -52 3 -53 45 0 45 0 -3 -42 c-3 -43 -3 -43 -45 -46 l-43 -3 0 -118 c0 -127 5 -141 52 -141 27 0 28 -2 28 -46 l0 -46 -80 4 c-67 3 -83 7 -102 26 -22 21 -23 32 -26 172 l-3 150 -52 -6 c-107 -14 -120 -35 -125 -206 l-4 -128 -132 0 -132 0 -25 78 -25 77 -90 0 -89 0 -24 -77 -25 -78 -68 0 c-37 0 -68 2 -68 4 0 4 166 467 191 534 8 20 15 22 83 22 62 0 77 -3 84 -17z m870 -330 l2 -213 -65 0 -65 0 0 215 0 216 63 -3 62 -3 3 -212z m80 14 c16 -17 52 -35 91 -48 36 -11 76 -26 88 -35 43 -28 19 -74 -37 -74 -12 0 -35 14 -50 30 -24 26 -35 30 -79 30 l-51 0 1 83 c1 45 3 73 6 62 3 -11 17 -32 31 -48z"/>
<path d="M1551 2615 c-13 -44 -26 -86 -28 -92 -4 -10 10 -13 51 -13 31 0 56 1 56 3 0 1 -13 42 -28 92 l-28 89 -23 -79z"/>
<path d="M3237 2822 c-38 -42 -8 -102 50 -102 55 0 85 67 45 103 -25 22 -75 21 -95 -1z"/>
<path d="M2980 2725 c0 -54 0 -55 -30 -55 -28 0 -30 -3 -30 -35 0 -32 2 -35 30 -35 l30 0 0 -127 c0 -163 10 -200 57 -219 20 -9 58 -14 91 -12 l57 3 3 40 c3 39 2 40 -29 42 -18 1 -36 8 -41 15 -4 7 -8 68 -8 136 l0 122 45 0 c45 0 45 0 45 35 0 35 0 35 -45 35 l-45 0 0 55 0 55 -65 0 -65 0 0 -55z"/>
<path d="M3513 2674 c-138 -51 -179 -264 -73 -375 97 -102 308 -63 347 66 l11 35 -64 0 c-46 0 -64 -4 -64 -13 0 -25 -40 -57 -71 -57 -64 0 -89 39 -89 135 0 94 26 135 85 135 38 0 62 -16 73 -50 11 -29 13 -30 72 -30 l60 0 -6 28 c-26 109 -162 170 -281 126z"/>
<path d="M3927 2676 c-48 -18 -76 -42 -93 -83 -21 -50 -19 -53 46 -53 44 0 60 4 60 13 0 23 35 47 67 47 36 0 50 -14 55 -55 3 -30 3 -30 -62 -36 -132 -14 -192 -59 -192 -145 0 -55 19 -86 65 -108 66 -31 167 -11 183 36 8 22 8 22 14 -7 5 -29 7 -30 65 -33 l60 -3 -3 138 c-3 189 -8 221 -41 254 -47 47 -147 62 -224 35z m135 -276 c-4 -48 -27 -70 -74 -70 -31 0 -41 5 -49 24 -22 47 22 87 91 83 33 -2 35 -4 32 -37z"/>
<path d="M3220 2465 l0 -215 65 0 65 0 0 215 0 215 -65 0 -65 0 0 -215z"/>
<path d="M1340 2091 c0 -11 9 -23 20 -26 22 -7 28 -35 7 -35 -7 0 -19 6 -26 13 -11 10 -13 9 -9 -3 7 -22 37 -24 58 -5 16 14 18 14 23 0 9 -21 54 -19 66 3 9 16 11 16 23 -1 16 -21 59 -20 66 1 3 11 0 11 -16 1 -17 -10 -23 -10 -36 0 -20 17 -20 35 0 55 8 9 11 16 5 16 -5 0 -15 -8 -21 -17 -10 -17 -10 -17 -20 0 -6 9 -16 17 -21 17 -6 0 -3 -7 5 -16 27 -26 16 -64 -19 -64 -35 0 -46 38 -19 64 9 9 11 16 4 16 -6 0 -16 -13 -23 -29 -12 -29 -13 -29 -36 -12 -13 10 -21 23 -17 30 4 6 2 11 -3 11 -6 0 -11 -9 -11 -19z"/>
<path d="M1375 2100 c3 -5 8 -10 11 -10 2 0 4 5 4 10 0 6 -5 10 -11 10 -5 0 -7 -4 -4 -10z"/>
<path d="M1552 2096 c7 -8 15 -12 17 -11 5 6 -10 25 -20 25 -5 0 -4 -6 3 -14z"/>
<path d="M1593 2065 c0 -27 2 -38 4 -22 2 15 2 37 0 50 -2 12 -4 0 -4 -28z"/>
<path d="M1631 2088 c-5 -13 -11 -34 -15 -48 -6 -21 -5 -22 4 -7 14 22 50 23 50 0 0 -9 3 -14 6 -11 8 8 -17 88 -28 88 -5 0 -12 -10 -17 -22z m29 -20 c0 -5 -6 -8 -14 -8 -9 0 -12 7 -9 21 4 16 8 17 14 7 5 -7 9 -16 9 -20z"/>
<path d="M1692 2068 l-2 -48 33 1 c29 2 29 2 5 6 -24 4 -27 10 -31 46 l-4 42 -1 -47z"/>
<path d="M1791 2063 l2 -48 6 39 6 39 17 -36 c24 -51 38 -46 37 11 l-2 47 -6 -40 -7 -40 -19 38 c-10 20 -22 37 -27 37 -4 0 -7 -21 -7 -47z"/>
<path d="M1880 2065 c0 -44 0 -45 33 -44 30 2 30 2 5 6 -34 5 -37 30 -5 36 l22 4 -22 2 c-13 0 -23 7 -23 15 0 8 10 17 23 19 19 4 18 4 -5 6 -27 1 -28 -1 -28 -44z"/>
<path d="M1952 2103 c12 -3 18 -17 21 -46 l4 -42 1 43 c2 34 6 42 21 42 14 0 21 -10 28 -37 9 -41 26 -50 31 -18 2 16 1 17 -7 6 -7 -11 -11 -6 -16 22 -7 37 -8 37 -54 36 -25 -1 -38 -3 -29 -6z"/>
<path d="M2066 2103 c-3 -3 -6 -13 -6 -22 0 -14 2 -14 10 -1 6 9 10 10 10 3 0 -6 5 -24 11 -40 l11 -28 14 30 c7 17 13 39 13 50 0 11 -6 2 -14 -20 l-13 -40 -7 33 c-8 34 -18 46 -29 35z"/>
<path d="M2144 2083 c-9 -33 7 -58 36 -58 13 0 27 7 33 16 12 19 1 69 -14 69 -8 0 -8 -4 1 -14 6 -8 10 -25 8 -38 -2 -17 -10 -23 -28 -23 -18 0 -26 6 -28 23 -2 13 2 30 8 38 9 10 9 14 1 14 -6 0 -14 -12 -17 -27z"/>
<path d="M2241 2063 c1 -26 4 -38 6 -25 2 12 11 22 19 22 8 0 19 -10 23 -22 7 -18 9 -13 7 22 -1 41 -3 45 -28 48 -27 3 -28 2 -27 -45z m47 25 c-7 -19 -38 -22 -38 -4 0 10 9 16 21 16 12 0 19 -5 17 -12z"/>
<path d="M2312 2065 c-1 -43 1 -46 9 -25 l10 25 19 -25 c10 -14 21 -22 24 -19 4 3 -3 14 -14 24 l-20 18 22 24 c12 13 17 23 12 23 -5 0 -15 -9 -22 -20 -16 -26 -30 -25 -35 3 -2 12 -5 0 -5 -28z"/>
</g>
</svg>